<svg viewBox="0 0 1024 1024" version="1.1" xmlns="http://www.w3.org/2000/svg" width="200" height="200">
  <path d="M140 428h140a24 24 0 0 1 24 24v368a24 24 0 0 1-24 24H140a24 24 0 0 1-24-24V452a24 24 0 0 1 24-24z m208-120h140a24 24 0 0 1 24 24v488a24 24 0 0 1-24 24H348a24 24 0 0 1-24-24V332a24 24 0 0 1 24-24z m396 120h140a24 24 0 0 1 24 24v368a24 24 0 0 1-24 24H744a24 24 0 0 1-24-24V452a24 24 0 0 1 24-24z m-97-268l125 216a24 24 0 0 1-20.8 36H501a24 24 0 0 1-20.8-36l125-216a24 24 0 0 1 41.6 0z" transform="rotate(180 613.6 372)" />
</svg>
