<svg t="1660837362832" class="icon" viewBox="0 0 1024 1024" version="1.1" xmlns="http://www.w3.org/2000/svg" p-id="37528" xmlns:xlink="http://www.w3.org/1999/xlink" width="200" height="200">
  <path d="M148.992 851.456c-18.432 0-33.792-15.36-33.792-33.792 0-18.432 15.36-33.792 33.792-33.792h271.872c9.216 0 17.408 3.584 24.064 9.728s9.728 14.848 9.728 24.064c0 18.432-15.36 33.792-33.792 33.792H148.992zM81.92 500.736c-18.432 0-33.792-14.848-33.792-33.792 0-18.432 15.36-33.792 33.792-33.792h228.864c18.432 0.512 32.768 15.36 32.768 33.792 0 18.432-14.336 33.28-32.768 33.792H81.92z m67.072-349.184c-9.216 0-17.408-3.584-24.064-9.728-6.144-6.144-9.728-14.848-9.728-24.064 0-18.432 15.36-33.792 33.792-33.792h271.872c18.432 0 33.792 14.848 33.792 33.792 0 18.432-15.36 33.792-33.792 33.792H148.992z" p-id="37529"></path>
  <path d="M425.472 851.968c-9.216 0-17.408-3.584-24.064-9.728-6.144-6.144-9.728-14.848-9.728-24.064l-0.512-700.928c0-18.432 15.36-33.792 33.792-33.792 18.432 0 33.792 15.36 33.792 33.792l0.512 700.928c0 9.216-3.584 17.408-9.728 24.064-6.656 6.144-14.848 9.728-24.064 9.728zM330.24 502.784c-9.216 0-17.408-3.584-24.064-9.728L205.312 391.68c-13.312-12.8-13.312-34.304-0.512-47.616 6.656-6.656 15.36-10.24 24.064-10.24 8.704 0 17.408 3.584 24.064 9.728l101.376 100.864c6.144 6.144 9.728 14.848 9.728 24.064 0 9.216-3.584 17.408-9.728 24.064-6.656 6.656-14.848 10.24-24.064 10.24z" p-id="37530"></path>
  <path d="M579.584 851.456c-9.216 0-17.408-3.584-23.552-9.728-6.144-6.144-9.728-14.848-9.728-24.064 0-18.432 15.36-33.792 33.792-33.792h271.872c18.432 0 33.792 14.848 33.792 33.28 0 9.216-3.584 17.408-9.728 24.064s-14.848 9.728-23.552 9.728l-272.896 0.512zM230.4 603.648c-9.216 0-17.408-3.584-24.064-9.728-12.8-12.8-13.312-33.28-1.024-47.104L306.688 445.44c6.656-6.656 14.848-9.728 24.064-9.728 9.216 0 17.408 3.584 24.064 9.728 6.144 6.144 9.728 14.848 9.728 24.064 0 9.216-3.584 17.408-9.728 24.064l-101.376 101.376c-6.656 5.632-14.848 8.704-23.04 8.704zM690.688 501.76c-18.432-0.512-32.768-15.36-32.768-33.792 0-18.432 14.336-33.28 32.768-33.792h228.864c9.216 0 17.408 3.584 24.064 9.728 6.144 6.144 9.728 14.848 9.728 24.064 0 18.432-15.36 33.792-33.792 33.792h-228.864z m-111.616-350.72c-9.216 0-17.408-3.584-23.552-9.728-6.144-6.144-9.728-14.848-9.728-24.064 0-9.216 3.584-17.408 9.728-24.064 6.144-6.144 14.848-9.728 24.064-9.728h271.872c18.432 0 33.792 15.36 33.792 33.792 0 18.432-15.36 33.792-33.792 33.792h-272.384z" p-id="37531"></path>
  <path d="M580.096 851.968c-18.432 0-33.792-15.36-33.792-33.792l-0.512-700.928c0-9.216 3.584-17.408 9.728-24.064 6.144-6.144 14.848-9.728 24.064-9.728 18.432 0 33.792 15.36 33.792 33.792l0.512 700.928c-0.512 18.432-15.36 33.792-33.792 33.792z m192-250.88c-9.216 0-17.408-3.584-24.064-9.728l-101.376-101.376c-13.312-13.312-13.312-34.304 0-47.616 6.656-6.144 14.848-9.728 24.064-9.728 9.216 0 17.408 3.584 24.064 9.728l101.376 101.376c13.312 13.312 13.312 34.816 0 47.616-6.144 6.144-14.848 9.728-24.064 9.728z" p-id="37532"></path>
  <path d="M670.72 499.712c-9.216 0-17.408-3.584-24.064-9.728-6.144-6.144-9.728-14.848-9.728-24.064 0-9.216 3.584-17.408 9.728-24.064l101.376-101.376c6.656-6.656 14.848-9.728 24.064-9.728 9.216 0 17.408 3.584 24.064 9.728 6.144 6.144 9.728 14.848 9.728 23.552 0 9.216-3.584 17.408-9.728 24.064l-101.376 101.376c-6.656 6.656-14.848 10.24-24.064 10.24z" p-id="37533"></path>
</svg>