<?xml version="1.0" standalone="no"?><!DOCTYPE svg PUBLIC "-//W3C//DTD SVG 1.1//EN" "http://www.w3.org/Graphics/SVG/1.1/DTD/svg11.dtd"><svg t="1660822093370" class="icon" viewBox="0 0 1024 1024" version="1.1" xmlns="http://www.w3.org/2000/svg" p-id="11305" xmlns:xlink="http://www.w3.org/1999/xlink" width="200" height="200"><defs><style type="text/css">@font-face { font-family: feedback-iconfont; src: url("//at.alicdn.com/t/font_1031158_u69w8yhxdu.woff2?t=1630033759944") format("woff2"), url("//at.alicdn.com/t/font_1031158_u69w8yhxdu.woff?t=1630033759944") format("woff"), url("//at.alicdn.com/t/font_1031158_u69w8yhxdu.ttf?t=1630033759944") format("truetype"); }
</style></defs><path d="M619.5 680.1c-4.2 0-8.3-0.5-12.3-1.6v159.6c2.8 1 5.6 2 8.7 2 16.7 0 30.2-15.5 30.2-34.5V671.5c-3.1 2-6.2 4.2-9.7 5.5-5.5 2-11.2 3.1-16.9 3.1z m163.6-307.2c-7.5-23.1-28.7-38.6-52.9-38.6h-86.4c-15.8 0-29.8 7.1-40.1 18.1-1.9 2.6-4 5.1-6.2 7.5-1.3 2-2.3 4.3-3.3 6.5 24 8.4 43.3 27.5 51.5 52.9l56 173.1c2.5 7.8 3.4 15.9 2.7 23.9-0.5 6.2-2 12.1-4.3 17.7v159.7c0 18.5 14.9 33.6 33.4 33.6 18.4 0 33.4-15 33.4-33.6V537.2l9.5 29.3c4.5 14 17.5 22.9 31.3 22.9 3.4 0 6.8-0.5 10.2-1.6 13-4.3 21.6-15.8 22.7-28.7 0.4-4.4-0.1-8.9-1.5-13.1l-56-173.1z m-127.6-68.7c7.2 2.5 14.9 4.1 23 4.1s15.7-1.6 23-4.1c28.1-9.6 48.4-35.9 48.4-67.2 0-39.4-31.9-71.4-71.3-71.4s-71.3 31.9-71.3 71.4c-0.1 31.3 20.2 57.6 48.2 67.2z m-54 120.6c-7.5-23.1-28.7-38.7-52.9-38.7h-86.4c-15.8 0-29.8 7.1-40.1 18.1-1.9 2.6-4 5.1-6.2 7.5-1.3 2-2.3 4.3-3.3 6.5 24 8.4 43.3 27.5 51.5 52.9l56 173.1c2.5 7.8 3.5 15.9 2.8 23.9-0.5 6.2-2 12.1-4.3 17.7v159.7c0 18.5 14.9 33.6 33.4 33.6 18.4 0 33.4-15 33.4-33.6V589.1l9.5 29.3c4.5 14 17.5 22.9 31.3 22.9 3.4 0 6.8-0.5 10.2-1.6 13-4.3 21.6-15.8 22.6-28.7 0.4-4.3-0.1-8.7-1.5-13.1l-56-173.1zM463.8 732c-4.2 0-8.3-0.5-12.3-1.6V890c2.8 1 5.6 2 8.7 2 16.7 0 30.2-15.5 30.2-34.5V723.4c-3.1 2-6.2 4.2-9.7 5.5-5.4 2-11.1 3.1-16.9 3.1z m10.1-376c7.2 2.5 14.9 4.1 23 4.1s15.7-1.6 23-4.1c28.1-9.6 48.4-35.9 48.4-67.2 0-39.4-31.9-71.3-71.3-71.3s-71.3 31.9-71.3 71.3c-0.1 31.3 20.2 57.7 48.2 67.2z m-54.8 133.6c-7.6-23.1-29.1-38.7-53.6-38.7H278c-24.5 0-46 15.5-53.6 38.7l-56.7 173.2c-1.4 4.3-1.9 8.8-1.5 13.1 1.1 12.9 9.8 24.5 22.9 28.7 3.3 1.1 6.8 1.6 10.3 1.7 14.1 0 27.1-8.9 31.7-22.9l9.6-29.3v256.4c0 18.5 15.1 33.6 33.8 33.6 18.7 0 33.8-15 33.8-33.6V709.7H335v200.6c0 18.5 15.1 33.6 33.8 33.6 18.7 0 33.8-15 33.8-33.6V653.9l9.6 29.3c4.6 14 17.7 22.9 31.7 22.9 3.4 0 6.9-0.5 10.3-1.7 13.2-4.3 21.8-15.8 22.9-28.7 0.4-4.3-0.1-8.7-1.5-13.1l-56.5-173z m-126.8-68.7c7.2 2.5 14.9 4.1 23 4.1s15.7-1.6 23-4.1c28.1-9.6 48.4-35.9 48.4-67.2 0-39.4-32-71.4-71.3-71.4-39.4 0-71.3 31.9-71.3 71.4-0.1 31.3 20.2 57.6 48.2 67.2z" p-id="11306"></path></svg>