<svg t="1660837300455" class="icon" viewBox="0 0 1024 1024" version="1.1" xmlns="http://www.w3.org/2000/svg" p-id="36608" xmlns:xlink="http://www.w3.org/1999/xlink" width="200" height="200">
  <path d="M526.336 843.776l239.616-358.4c10.24-14.336 6.144-32.768-8.192-43.008-4.096-4.096-10.24-6.144-16.384-6.144H552.96v-225.28c0-16.384-14.336-30.72-30.72-30.72-10.24 0-20.48 6.144-24.576 14.336L258.048 552.96c-10.24 14.336-6.144 32.768 8.192 43.008 4.096 4.096 10.24 6.144 16.384 6.144H471.04v225.28c0 16.384 14.336 30.72 30.72 30.72 10.24 0 20.48-6.144 24.576-14.336z" p-id="36609"></path>
</svg>