<svg viewBox="0 0 1024 1024" version="1.1" xmlns="http://www.w3.org/2000/svg" width="200" height="200">
  <path d="M172 140h680a24 24 0 0 1 24 24v120a24 24 0 0 1-24 24H172a24 24 0 0 1-24-24V164a24 24 0 0 1 24-24z m0 288h288a24 24 0 0 1 24 24v120a24 24 0 0 1-24 24H172a24 24 0 0 1-24-24V452a24 24 0 0 1 24-24z m392 0h288a24 24 0 0 1 24 24v120a24 24 0 0 1-24 24H564a24 24 0 0 1-24-24V452a24 24 0 0 1 24-24z m-392 288h680a24 24 0 0 1 24 24v120a24 24 0 0 1-24 24H172a24 24 0 0 1-24-24V740a24 24 0 0 1 24-24z" />
</svg>
